<?xml version="1.0" encoding="utf-8" standalone="no"?>
<!DOCTYPE svg PUBLIC "-//W3C//DTD SVG 1.1//EN"
  "http://www.w3.org/Graphics/SVG/1.1/DTD/svg11.dtd">
<svg xmlns:xlink="http://www.w3.org/1999/xlink" width="199.2275pt" height="186.095pt" viewBox="0 0 199.2275 186.095" xmlns="http://www.w3.org/2000/svg" version="1.1">
 <metadata>
  <rdf:RDF xmlns:dc="http://purl.org/dc/elements/1.1/" xmlns:cc="http://creativecommons.org/ns#" xmlns:rdf="http://www.w3.org/1999/02/22-rdf-syntax-ns#">
   <cc:Work>
    <dc:type rdf:resource="http://purl.org/dc/dcmitype/StillImage"/>
    <dc:date>2025-06-01T16:08:09.645225</dc:date>
    <dc:format>image/svg+xml</dc:format>
    <dc:creator>
     <cc:Agent>
      <dc:title>Matplotlib v3.10.0, https://matplotlib.org/</dc:title>
     </cc:Agent>
    </dc:creator>
   </cc:Work>
  </rdf:RDF>
 </metadata>
 <defs>
  <style type="text/css">*{stroke-linejoin: round; stroke-linecap: butt}</style>
 </defs>
 <g id="figure_1">
  <g id="patch_1">
   <path d="M 0 186.095 
L 199.2275 186.095 
L 199.2275 0 
L 0 0 
L 0 186.095 
z
" style="fill: none"/>
  </g>
  <g id="axes_1">
   <g id="patch_2">
    <path d="M 52.5275 145.8 
L 192.0275 145.8 
L 192.0275 7.2 
L 52.5275 7.2 
L 52.5275 145.8 
z
" style="fill: none"/>
   </g>
   <g id="PathCollection_1">
    <defs>
     <path id="mebd05f4848" d="M 0 3.535534 
C 0.937635 3.535534 1.836992 3.163008 2.5 2.5 
C 3.163008 1.836992 3.535534 0.937635 3.535534 0 
C 3.535534 -0.937635 3.163008 -1.836992 2.5 -2.5 
C 1.836992 -3.163008 0.937635 -3.535534 0 -3.535534 
C -0.937635 -3.535534 -1.836992 -3.163008 -2.5 -2.5 
C -3.163008 -1.836992 -3.535534 -0.937635 -3.535534 0 
C -3.535534 0.937635 -3.163008 1.836992 -2.5 2.5 
C -1.836992 3.163008 -0.937635 3.535534 0 3.535534 
z
" style="stroke: #000000; stroke-opacity: 0.8"/>
    </defs>
    <g clip-path="url(#paea1209b93)">
     <use xlink:href="#mebd05f4848" x="122.634257" y="85.444452" style="fill: #ffc080; fill-opacity: 0.8; stroke: #000000; stroke-opacity: 0.8"/>
     <use xlink:href="#mebd05f4848" x="136.45397" y="64.220428" style="fill: #ffc080; fill-opacity: 0.8; stroke: #000000; stroke-opacity: 0.8"/>
     <use xlink:href="#mebd05f4848" x="137.966811" y="56.881967" style="fill: #ffc080; fill-opacity: 0.8; stroke: #000000; stroke-opacity: 0.8"/>
     <use xlink:href="#mebd05f4848" x="143.454894" y="66.777863" style="fill: #ffc080; fill-opacity: 0.8; stroke: #000000; stroke-opacity: 0.8"/>
     <use xlink:href="#mebd05f4848" x="105.955674" y="67.241062" style="fill: #ffc080; fill-opacity: 0.8; stroke: #000000; stroke-opacity: 0.8"/>
     <use xlink:href="#mebd05f4848" x="101.099372" y="90.146347" style="fill: #ffc080; fill-opacity: 0.8; stroke: #000000; stroke-opacity: 0.8"/>
     <use xlink:href="#mebd05f4848" x="157.791105" y="55.836009" style="fill: #ffc080; fill-opacity: 0.8; stroke: #000000; stroke-opacity: 0.8"/>
     <use xlink:href="#mebd05f4848" x="142.624665" y="58.784749" style="fill: #ffc080; fill-opacity: 0.8; stroke: #000000; stroke-opacity: 0.8"/>
     <use xlink:href="#mebd05f4848" x="105.946481" y="98.483819" style="fill: #ffc080; fill-opacity: 0.8; stroke: #000000; stroke-opacity: 0.8"/>
     <use xlink:href="#mebd05f4848" x="156.493924" y="67.605085" style="fill: #ffc080; fill-opacity: 0.8; stroke: #000000; stroke-opacity: 0.8"/>
     <use xlink:href="#mebd05f4848" x="158.411308" y="55.829806" style="fill: #ffc080; fill-opacity: 0.8; stroke: #000000; stroke-opacity: 0.8"/>
     <use xlink:href="#mebd05f4848" x="84.395156" y="117.440562" style="fill: #ffc080; fill-opacity: 0.8; stroke: #000000; stroke-opacity: 0.8"/>
     <use xlink:href="#mebd05f4848" x="74.285432" y="105.462116" style="fill: #ffc080; fill-opacity: 0.8; stroke: #000000; stroke-opacity: 0.8"/>
     <use xlink:href="#mebd05f4848" x="150.403353" y="51.748427" style="fill: #ffc080; fill-opacity: 0.8; stroke: #000000; stroke-opacity: 0.8"/>
     <use xlink:href="#mebd05f4848" x="132.539995" y="62.741446" style="fill: #ffc080; fill-opacity: 0.8; stroke: #000000; stroke-opacity: 0.8"/>
     <use xlink:href="#mebd05f4848" x="147.688055" y="70.069546" style="fill: #ffc080; fill-opacity: 0.8; stroke: #000000; stroke-opacity: 0.8"/>
     <use xlink:href="#mebd05f4848" x="157.309781" y="45.881664" style="fill: #ffc080; fill-opacity: 0.8; stroke: #000000; stroke-opacity: 0.8"/>
     <use xlink:href="#mebd05f4848" x="68.193574" y="130.630361" style="fill: #ffc080; fill-opacity: 0.8; stroke: #000000; stroke-opacity: 0.8"/>
     <use xlink:href="#mebd05f4848" x="76.700826" y="119.072966" style="fill: #ffc080; fill-opacity: 0.8; stroke: #000000; stroke-opacity: 0.8"/>
     <use xlink:href="#mebd05f4848" x="139.54096" y="66.651473" style="fill: #ffc080; fill-opacity: 0.8; stroke: #000000; stroke-opacity: 0.8"/>
     <use xlink:href="#mebd05f4848" x="135.885773" y="63.436289" style="fill: #ffc080; fill-opacity: 0.8; stroke: #000000; stroke-opacity: 0.8"/>
     <use xlink:href="#mebd05f4848" x="151.754596" y="61.093625" style="fill: #ffc080; fill-opacity: 0.8; stroke: #000000; stroke-opacity: 0.8"/>
     <use xlink:href="#mebd05f4848" x="104.211968" y="92.565727" style="fill: #ffc080; fill-opacity: 0.8; stroke: #000000; stroke-opacity: 0.8"/>
     <use xlink:href="#mebd05f4848" x="130.178397" y="52.54628" style="fill: #ffc080; fill-opacity: 0.8; stroke: #000000; stroke-opacity: 0.8"/>
     <use xlink:href="#mebd05f4848" x="112.741519" y="78.433616" style="fill: #ffc080; fill-opacity: 0.8; stroke: #000000; stroke-opacity: 0.8"/>
     <use xlink:href="#mebd05f4848" x="128.808887" y="59.70639" style="fill: #ffc080; fill-opacity: 0.8; stroke: #000000; stroke-opacity: 0.8"/>
     <use xlink:href="#mebd05f4848" x="160.998855" y="34.68489" style="fill: #ffc080; fill-opacity: 0.8; stroke: #000000; stroke-opacity: 0.8"/>
     <use xlink:href="#mebd05f4848" x="156.411153" y="65.186493" style="fill: #ffc080; fill-opacity: 0.8; stroke: #000000; stroke-opacity: 0.8"/>
     <use xlink:href="#mebd05f4848" x="140.55791" y="43.371986" style="fill: #ffc080; fill-opacity: 0.8; stroke: #000000; stroke-opacity: 0.8"/>
     <use xlink:href="#mebd05f4848" x="67.91975" y="129.365684" style="fill: #ffc080; fill-opacity: 0.8; stroke: #000000; stroke-opacity: 0.8"/>
     <use xlink:href="#mebd05f4848" x="134.189667" y="51.977379" style="fill: #ffc080; fill-opacity: 0.8; stroke: #000000; stroke-opacity: 0.8"/>
     <use xlink:href="#mebd05f4848" x="149.718138" y="63.133061" style="fill: #ffc080; fill-opacity: 0.8; stroke: #000000; stroke-opacity: 0.8"/>
     <use xlink:href="#mebd05f4848" x="99.682017" y="103.117088" style="fill: #ffc080; fill-opacity: 0.8; stroke: #000000; stroke-opacity: 0.8"/>
     <use xlink:href="#mebd05f4848" x="136.195651" y="63.27987" style="fill: #ffc080; fill-opacity: 0.8; stroke: #000000; stroke-opacity: 0.8"/>
     <use xlink:href="#mebd05f4848" x="109.271891" y="84.827894" style="fill: #ffc080; fill-opacity: 0.8; stroke: #000000; stroke-opacity: 0.8"/>
     <use xlink:href="#mebd05f4848" x="112.110053" y="92.981393" style="fill: #ffc080; fill-opacity: 0.8; stroke: #000000; stroke-opacity: 0.8"/>
     <use xlink:href="#mebd05f4848" x="153.007032" y="55.650049" style="fill: #ffc080; fill-opacity: 0.8; stroke: #000000; stroke-opacity: 0.8"/>
     <use xlink:href="#mebd05f4848" x="142.593564" y="57.172782" style="fill: #ffc080; fill-opacity: 0.8; stroke: #000000; stroke-opacity: 0.8"/>
     <use xlink:href="#mebd05f4848" x="143.9935" y="64.295523" style="fill: #ffc080; fill-opacity: 0.8; stroke: #000000; stroke-opacity: 0.8"/>
     <use xlink:href="#mebd05f4848" x="136.72049" y="75.079863" style="fill: #ffc080; fill-opacity: 0.8; stroke: #000000; stroke-opacity: 0.8"/>
     <use xlink:href="#mebd05f4848" x="148.375216" y="52.59361" style="fill: #ffc080; fill-opacity: 0.8; stroke: #000000; stroke-opacity: 0.8"/>
    </g>
   </g>
   <g id="FillBetweenPolyCollection_1">
    <path d="M 67.91975 111.569041 
L 67.91975 126.989695 
L 68.859943 126.162072 
L 69.800136 125.349818 
L 70.740329 124.548015 
L 71.680522 123.745993 
L 72.620715 122.943913 
L 73.560908 122.115661 
L 74.501101 121.272797 
L 75.441294 120.42985 
L 76.381487 119.586903 
L 77.32168 118.743955 
L 78.261873 117.901008 
L 79.202066 117.058061 
L 80.142259 116.221715 
L 81.082452 115.391984 
L 82.022645 114.562803 
L 82.962838 113.751727 
L 83.903031 112.976734 
L 84.843224 112.182873 
L 85.783417 111.388187 
L 86.72361 110.551159 
L 87.663803 109.699839 
L 88.603996 108.848471 
L 89.544189 108.000692 
L 90.484382 107.199016 
L 91.424575 106.397325 
L 92.364768 105.565098 
L 93.304961 104.748324 
L 94.245154 103.918799 
L 95.185347 103.087961 
L 96.125539 102.257123 
L 97.065732 101.416396 
L 98.005925 100.596577 
L 98.946118 99.767299 
L 99.886311 98.938021 
L 100.826504 98.106039 
L 101.766697 97.328406 
L 102.70689 96.466828 
L 103.647083 95.676699 
L 104.587276 94.923635 
L 105.527469 94.170571 
L 106.467662 93.417507 
L 107.407855 92.645702 
L 108.348048 91.850973 
L 109.288241 91.05378 
L 110.228434 90.258145 
L 111.168627 89.445462 
L 112.10882 88.662501 
L 113.049013 87.870629 
L 113.989206 87.075678 
L 114.929399 86.293101 
L 115.869592 85.483602 
L 116.809785 84.71134 
L 117.749978 83.934309 
L 118.690171 83.156496 
L 119.630364 82.384151 
L 120.570557 81.649778 
L 121.51075 80.873465 
L 122.450943 80.109204 
L 123.391136 79.342468 
L 124.331329 78.591955 
L 125.271522 77.833852 
L 126.211715 77.104607 
L 127.151908 76.397762 
L 128.092101 75.641605 
L 129.032294 74.867758 
L 129.972487 74.122116 
L 130.91268 73.370304 
L 131.852873 72.625712 
L 132.793066 71.873236 
L 133.733259 71.143578 
L 134.673452 70.419852 
L 135.613645 69.690026 
L 136.553838 68.966414 
L 137.494031 68.242803 
L 138.434224 67.496217 
L 139.374417 66.804188 
L 140.31461 66.094618 
L 141.254803 65.456126 
L 142.194995 64.742481 
L 143.135188 64.132841 
L 144.075381 63.467316 
L 145.015574 62.800844 
L 145.955767 62.059374 
L 146.89596 61.353564 
L 147.836153 60.632926 
L 148.776346 59.99387 
L 149.716539 59.354443 
L 150.656732 58.639137 
L 151.596925 57.920532 
L 152.537118 57.276119 
L 153.477311 56.578734 
L 154.417504 55.879573 
L 155.357697 55.179105 
L 156.29789 54.480327 
L 157.238083 53.832197 
L 158.178276 53.272391 
L 159.118469 52.599164 
L 160.058662 51.921711 
L 160.998855 51.26182 
L 160.998855 41.274409 
L 160.998855 41.274409 
L 160.058662 42.117962 
L 159.118469 42.961514 
L 158.178276 43.805067 
L 157.238083 44.64862 
L 156.29789 45.492737 
L 155.357697 46.33732 
L 154.417504 47.174772 
L 153.477311 47.985677 
L 152.537118 48.796832 
L 151.596925 49.609174 
L 150.656732 50.423733 
L 149.716539 51.262209 
L 148.776346 52.070135 
L 147.836153 52.912976 
L 146.89596 53.767259 
L 145.955767 54.617554 
L 145.015574 55.447314 
L 144.075381 56.270586 
L 143.135188 57.096807 
L 142.194995 57.934701 
L 141.254803 58.7987 
L 140.31461 59.663073 
L 139.374417 60.5172 
L 138.434224 61.331895 
L 137.494031 62.059945 
L 136.553838 62.833247 
L 135.613645 63.592916 
L 134.673452 64.378299 
L 133.733259 65.097548 
L 132.793066 65.925687 
L 131.852873 66.726201 
L 130.91268 67.466178 
L 129.972487 68.276867 
L 129.032294 69.063222 
L 128.092101 69.81921 
L 127.151908 70.539243 
L 126.211715 71.261953 
L 125.271522 71.983217 
L 124.331329 72.70442 
L 123.391136 73.401208 
L 122.450943 74.106425 
L 121.51075 74.822634 
L 120.570557 75.521418 
L 119.630364 76.190348 
L 118.690171 76.91066 
L 117.749978 77.606282 
L 116.809785 78.252404 
L 115.869592 78.887157 
L 114.929399 79.535334 
L 113.989206 80.178262 
L 113.049013 80.872781 
L 112.10882 81.505673 
L 111.168627 82.145723 
L 110.228434 82.757899 
L 109.288241 83.47024 
L 108.348048 84.152465 
L 107.407855 84.794767 
L 106.467662 85.432185 
L 105.527469 86.138087 
L 104.587276 86.834525 
L 103.647083 87.50504 
L 102.70689 88.175555 
L 101.766697 88.865989 
L 100.826504 89.526312 
L 99.886311 90.183304 
L 98.946118 90.80669 
L 98.005925 91.411872 
L 97.065732 92.017054 
L 96.125539 92.622979 
L 95.185347 93.229715 
L 94.245154 93.83645 
L 93.304961 94.443186 
L 92.364768 95.050053 
L 91.424575 95.657164 
L 90.484382 96.271853 
L 89.544189 96.921348 
L 88.603996 97.571526 
L 87.663803 98.185308 
L 86.72361 98.789542 
L 85.783417 99.414474 
L 84.843224 100.084505 
L 83.903031 100.757705 
L 82.962838 101.403581 
L 82.022645 102.010631 
L 81.082452 102.617958 
L 80.142259 103.277371 
L 79.202066 103.951539 
L 78.261873 104.625706 
L 77.32168 105.300269 
L 76.381487 105.972638 
L 75.441294 106.582493 
L 74.501101 107.192348 
L 73.560908 107.802203 
L 72.620715 108.420696 
L 71.680522 109.08579 
L 70.740329 109.750885 
L 69.800136 110.381529 
L 68.859943 110.974994 
L 67.91975 111.569041 
z
" clip-path="url(#paea1209b93)" style="fill-opacity: 0.15"/>
   </g>
   <g id="matplotlib.axis_1">
    <g id="xtick_1">
     <g id="line2d_1">
      <defs>
       <path id="m80e5a2fe7f" d="M 0 0 
L 0 3.5 
" style="stroke: #000000; stroke-width: 0.8"/>
      </defs>
      <g>
       <use xlink:href="#m80e5a2fe7f" x="58.34" y="145.8" style="stroke: #000000; stroke-width: 0.8"/>
      </g>
     </g>
     <g id="text_1">
      <!-- 0.00 -->
      <g transform="translate(46.663438 161.389375) scale(0.12 -0.12)">
       <defs>
        <path id="ArialMT-30" d="M 266 2259 
Q 266 3072 433 3567 
Q 600 4063 929 4331 
Q 1259 4600 1759 4600 
Q 2128 4600 2406 4451 
Q 2684 4303 2865 4023 
Q 3047 3744 3150 3342 
Q 3253 2941 3253 2259 
Q 3253 1453 3087 958 
Q 2922 463 2592 192 
Q 2263 -78 1759 -78 
Q 1097 -78 719 397 
Q 266 969 266 2259 
z
M 844 2259 
Q 844 1131 1108 757 
Q 1372 384 1759 384 
Q 2147 384 2411 759 
Q 2675 1134 2675 2259 
Q 2675 3391 2411 3762 
Q 2147 4134 1753 4134 
Q 1366 4134 1134 3806 
Q 844 3388 844 2259 
z
" transform="scale(0.015625)"/>
        <path id="ArialMT-2e" d="M 581 0 
L 581 641 
L 1222 641 
L 1222 0 
L 581 0 
z
" transform="scale(0.015625)"/>
       </defs>
       <use xlink:href="#ArialMT-30"/>
       <use xlink:href="#ArialMT-2e" transform="translate(55.615234 0)"/>
       <use xlink:href="#ArialMT-30" transform="translate(83.398438 0)"/>
       <use xlink:href="#ArialMT-30" transform="translate(139.013672 0)"/>
      </g>
     </g>
    </g>
    <g id="xtick_2">
     <g id="line2d_2">
      <g>
       <use xlink:href="#m80e5a2fe7f" x="87.4025" y="145.8" style="stroke: #000000; stroke-width: 0.8"/>
      </g>
     </g>
     <g id="text_2">
      <!-- 0.25 -->
      <g transform="translate(75.725938 161.389375) scale(0.12 -0.12)">
       <defs>
        <path id="ArialMT-32" d="M 3222 541 
L 3222 0 
L 194 0 
Q 188 203 259 391 
Q 375 700 629 1000 
Q 884 1300 1366 1694 
Q 2113 2306 2375 2664 
Q 2638 3022 2638 3341 
Q 2638 3675 2398 3904 
Q 2159 4134 1775 4134 
Q 1369 4134 1125 3890 
Q 881 3647 878 3216 
L 300 3275 
Q 359 3922 746 4261 
Q 1134 4600 1788 4600 
Q 2447 4600 2831 4234 
Q 3216 3869 3216 3328 
Q 3216 3053 3103 2787 
Q 2991 2522 2730 2228 
Q 2469 1934 1863 1422 
Q 1356 997 1212 845 
Q 1069 694 975 541 
L 3222 541 
z
" transform="scale(0.015625)"/>
        <path id="ArialMT-35" d="M 266 1200 
L 856 1250 
Q 922 819 1161 601 
Q 1400 384 1738 384 
Q 2144 384 2425 690 
Q 2706 997 2706 1503 
Q 2706 1984 2436 2262 
Q 2166 2541 1728 2541 
Q 1456 2541 1237 2417 
Q 1019 2294 894 2097 
L 366 2166 
L 809 4519 
L 3088 4519 
L 3088 3981 
L 1259 3981 
L 1013 2750 
Q 1425 3038 1878 3038 
Q 2478 3038 2890 2622 
Q 3303 2206 3303 1553 
Q 3303 931 2941 478 
Q 2500 -78 1738 -78 
Q 1113 -78 717 272 
Q 322 622 266 1200 
z
" transform="scale(0.015625)"/>
       </defs>
       <use xlink:href="#ArialMT-30"/>
       <use xlink:href="#ArialMT-2e" transform="translate(55.615234 0)"/>
       <use xlink:href="#ArialMT-32" transform="translate(83.398438 0)"/>
       <use xlink:href="#ArialMT-35" transform="translate(139.013672 0)"/>
      </g>
     </g>
    </g>
    <g id="xtick_3">
     <g id="line2d_3">
      <g>
       <use xlink:href="#m80e5a2fe7f" x="116.465" y="145.8" style="stroke: #000000; stroke-width: 0.8"/>
      </g>
     </g>
     <g id="text_3">
      <!-- 0.50 -->
      <g transform="translate(104.788438 161.389375) scale(0.12 -0.12)">
       <use xlink:href="#ArialMT-30"/>
       <use xlink:href="#ArialMT-2e" transform="translate(55.615234 0)"/>
       <use xlink:href="#ArialMT-35" transform="translate(83.398438 0)"/>
       <use xlink:href="#ArialMT-30" transform="translate(139.013672 0)"/>
      </g>
     </g>
    </g>
    <g id="xtick_4">
     <g id="line2d_4">
      <g>
       <use xlink:href="#m80e5a2fe7f" x="145.5275" y="145.8" style="stroke: #000000; stroke-width: 0.8"/>
      </g>
     </g>
     <g id="text_4">
      <!-- 0.75 -->
      <g transform="translate(133.850938 161.389375) scale(0.12 -0.12)">
       <defs>
        <path id="ArialMT-37" d="M 303 3981 
L 303 4522 
L 3269 4522 
L 3269 4084 
Q 2831 3619 2401 2847 
Q 1972 2075 1738 1259 
Q 1569 684 1522 0 
L 944 0 
Q 953 541 1156 1306 
Q 1359 2072 1739 2783 
Q 2119 3494 2547 3981 
L 303 3981 
z
" transform="scale(0.015625)"/>
       </defs>
       <use xlink:href="#ArialMT-30"/>
       <use xlink:href="#ArialMT-2e" transform="translate(55.615234 0)"/>
       <use xlink:href="#ArialMT-37" transform="translate(83.398438 0)"/>
       <use xlink:href="#ArialMT-35" transform="translate(139.013672 0)"/>
      </g>
     </g>
    </g>
    <g id="xtick_5">
     <g id="line2d_5">
      <g>
       <use xlink:href="#m80e5a2fe7f" x="174.59" y="145.8" style="stroke: #000000; stroke-width: 0.8"/>
      </g>
     </g>
     <g id="text_5">
      <!-- 1.00 -->
      <g transform="translate(162.913438 161.389375) scale(0.12 -0.12)">
       <defs>
        <path id="ArialMT-31" d="M 2384 0 
L 1822 0 
L 1822 3584 
Q 1619 3391 1289 3197 
Q 959 3003 697 2906 
L 697 3450 
Q 1169 3672 1522 3987 
Q 1875 4303 2022 4600 
L 2384 4600 
L 2384 0 
z
" transform="scale(0.015625)"/>
       </defs>
       <use xlink:href="#ArialMT-31"/>
       <use xlink:href="#ArialMT-2e" transform="translate(55.615234 0)"/>
       <use xlink:href="#ArialMT-30" transform="translate(83.398438 0)"/>
       <use xlink:href="#ArialMT-30" transform="translate(139.013672 0)"/>
      </g>
     </g>
    </g>
    <g id="text_6">
     <!-- Experimental Transfection -->
     <g transform="translate(52.914687 176.51) scale(0.12 -0.12)">
      <defs>
       <path id="ArialMT-45" d="M 506 0 
L 506 4581 
L 3819 4581 
L 3819 4041 
L 1113 4041 
L 1113 2638 
L 3647 2638 
L 3647 2100 
L 1113 2100 
L 1113 541 
L 3925 541 
L 3925 0 
L 506 0 
z
" transform="scale(0.015625)"/>
       <path id="ArialMT-78" d="M 47 0 
L 1259 1725 
L 138 3319 
L 841 3319 
L 1350 2541 
Q 1494 2319 1581 2169 
Q 1719 2375 1834 2534 
L 2394 3319 
L 3066 3319 
L 1919 1756 
L 3153 0 
L 2463 0 
L 1781 1031 
L 1600 1309 
L 728 0 
L 47 0 
z
" transform="scale(0.015625)"/>
       <path id="ArialMT-70" d="M 422 -1272 
L 422 3319 
L 934 3319 
L 934 2888 
Q 1116 3141 1344 3267 
Q 1572 3394 1897 3394 
Q 2322 3394 2647 3175 
Q 2972 2956 3137 2557 
Q 3303 2159 3303 1684 
Q 3303 1175 3120 767 
Q 2938 359 2589 142 
Q 2241 -75 1856 -75 
Q 1575 -75 1351 44 
Q 1128 163 984 344 
L 984 -1272 
L 422 -1272 
z
M 931 1641 
Q 931 1000 1190 694 
Q 1450 388 1819 388 
Q 2194 388 2461 705 
Q 2728 1022 2728 1688 
Q 2728 2322 2467 2637 
Q 2206 2953 1844 2953 
Q 1484 2953 1207 2617 
Q 931 2281 931 1641 
z
" transform="scale(0.015625)"/>
       <path id="ArialMT-65" d="M 2694 1069 
L 3275 997 
Q 3138 488 2766 206 
Q 2394 -75 1816 -75 
Q 1088 -75 661 373 
Q 234 822 234 1631 
Q 234 2469 665 2931 
Q 1097 3394 1784 3394 
Q 2450 3394 2872 2941 
Q 3294 2488 3294 1666 
Q 3294 1616 3291 1516 
L 816 1516 
Q 847 969 1125 678 
Q 1403 388 1819 388 
Q 2128 388 2347 550 
Q 2566 713 2694 1069 
z
M 847 1978 
L 2700 1978 
Q 2663 2397 2488 2606 
Q 2219 2931 1791 2931 
Q 1403 2931 1139 2672 
Q 875 2413 847 1978 
z
" transform="scale(0.015625)"/>
       <path id="ArialMT-72" d="M 416 0 
L 416 3319 
L 922 3319 
L 922 2816 
Q 1116 3169 1280 3281 
Q 1444 3394 1641 3394 
Q 1925 3394 2219 3213 
L 2025 2691 
Q 1819 2813 1613 2813 
Q 1428 2813 1281 2702 
Q 1134 2591 1072 2394 
Q 978 2094 978 1738 
L 978 0 
L 416 0 
z
" transform="scale(0.015625)"/>
       <path id="ArialMT-69" d="M 425 3934 
L 425 4581 
L 988 4581 
L 988 3934 
L 425 3934 
z
M 425 0 
L 425 3319 
L 988 3319 
L 988 0 
L 425 0 
z
" transform="scale(0.015625)"/>
       <path id="ArialMT-6d" d="M 422 0 
L 422 3319 
L 925 3319 
L 925 2853 
Q 1081 3097 1340 3245 
Q 1600 3394 1931 3394 
Q 2300 3394 2536 3241 
Q 2772 3088 2869 2813 
Q 3263 3394 3894 3394 
Q 4388 3394 4653 3120 
Q 4919 2847 4919 2278 
L 4919 0 
L 4359 0 
L 4359 2091 
Q 4359 2428 4304 2576 
Q 4250 2725 4106 2815 
Q 3963 2906 3769 2906 
Q 3419 2906 3187 2673 
Q 2956 2441 2956 1928 
L 2956 0 
L 2394 0 
L 2394 2156 
Q 2394 2531 2256 2718 
Q 2119 2906 1806 2906 
Q 1569 2906 1367 2781 
Q 1166 2656 1075 2415 
Q 984 2175 984 1722 
L 984 0 
L 422 0 
z
" transform="scale(0.015625)"/>
       <path id="ArialMT-6e" d="M 422 0 
L 422 3319 
L 928 3319 
L 928 2847 
Q 1294 3394 1984 3394 
Q 2284 3394 2536 3286 
Q 2788 3178 2913 3003 
Q 3038 2828 3088 2588 
Q 3119 2431 3119 2041 
L 3119 0 
L 2556 0 
L 2556 2019 
Q 2556 2363 2490 2533 
Q 2425 2703 2258 2804 
Q 2091 2906 1866 2906 
Q 1506 2906 1245 2678 
Q 984 2450 984 1813 
L 984 0 
L 422 0 
z
" transform="scale(0.015625)"/>
       <path id="ArialMT-74" d="M 1650 503 
L 1731 6 
Q 1494 -44 1306 -44 
Q 1000 -44 831 53 
Q 663 150 594 308 
Q 525 466 525 972 
L 525 2881 
L 113 2881 
L 113 3319 
L 525 3319 
L 525 4141 
L 1084 4478 
L 1084 3319 
L 1650 3319 
L 1650 2881 
L 1084 2881 
L 1084 941 
Q 1084 700 1114 631 
Q 1144 563 1211 522 
Q 1278 481 1403 481 
Q 1497 481 1650 503 
z
" transform="scale(0.015625)"/>
       <path id="ArialMT-61" d="M 2588 409 
Q 2275 144 1986 34 
Q 1697 -75 1366 -75 
Q 819 -75 525 192 
Q 231 459 231 875 
Q 231 1119 342 1320 
Q 453 1522 633 1644 
Q 813 1766 1038 1828 
Q 1203 1872 1538 1913 
Q 2219 1994 2541 2106 
Q 2544 2222 2544 2253 
Q 2544 2597 2384 2738 
Q 2169 2928 1744 2928 
Q 1347 2928 1158 2789 
Q 969 2650 878 2297 
L 328 2372 
Q 403 2725 575 2942 
Q 747 3159 1072 3276 
Q 1397 3394 1825 3394 
Q 2250 3394 2515 3294 
Q 2781 3194 2906 3042 
Q 3031 2891 3081 2659 
Q 3109 2516 3109 2141 
L 3109 1391 
Q 3109 606 3145 398 
Q 3181 191 3288 0 
L 2700 0 
Q 2613 175 2588 409 
z
M 2541 1666 
Q 2234 1541 1622 1453 
Q 1275 1403 1131 1340 
Q 988 1278 909 1158 
Q 831 1038 831 891 
Q 831 666 1001 516 
Q 1172 366 1500 366 
Q 1825 366 2078 508 
Q 2331 650 2450 897 
Q 2541 1088 2541 1459 
L 2541 1666 
z
" transform="scale(0.015625)"/>
       <path id="ArialMT-6c" d="M 409 0 
L 409 4581 
L 972 4581 
L 972 0 
L 409 0 
z
" transform="scale(0.015625)"/>
       <path id="ArialMT-20" transform="scale(0.015625)"/>
       <path id="ArialMT-54" d="M 1659 0 
L 1659 4041 
L 150 4041 
L 150 4581 
L 3781 4581 
L 3781 4041 
L 2266 4041 
L 2266 0 
L 1659 0 
z
" transform="scale(0.015625)"/>
       <path id="ArialMT-73" d="M 197 991 
L 753 1078 
Q 800 744 1014 566 
Q 1228 388 1613 388 
Q 2000 388 2187 545 
Q 2375 703 2375 916 
Q 2375 1106 2209 1216 
Q 2094 1291 1634 1406 
Q 1016 1563 777 1677 
Q 538 1791 414 1992 
Q 291 2194 291 2438 
Q 291 2659 392 2848 
Q 494 3038 669 3163 
Q 800 3259 1026 3326 
Q 1253 3394 1513 3394 
Q 1903 3394 2198 3281 
Q 2494 3169 2634 2976 
Q 2775 2784 2828 2463 
L 2278 2388 
Q 2241 2644 2061 2787 
Q 1881 2931 1553 2931 
Q 1166 2931 1000 2803 
Q 834 2675 834 2503 
Q 834 2394 903 2306 
Q 972 2216 1119 2156 
Q 1203 2125 1616 2013 
Q 2213 1853 2448 1751 
Q 2684 1650 2818 1456 
Q 2953 1263 2953 975 
Q 2953 694 2789 445 
Q 2625 197 2315 61 
Q 2006 -75 1616 -75 
Q 969 -75 630 194 
Q 291 463 197 991 
z
" transform="scale(0.015625)"/>
       <path id="ArialMT-66" d="M 556 0 
L 556 2881 
L 59 2881 
L 59 3319 
L 556 3319 
L 556 3672 
Q 556 4006 616 4169 
Q 697 4388 901 4523 
Q 1106 4659 1475 4659 
Q 1713 4659 2000 4603 
L 1916 4113 
Q 1741 4144 1584 4144 
Q 1328 4144 1222 4034 
Q 1116 3925 1116 3625 
L 1116 3319 
L 1763 3319 
L 1763 2881 
L 1116 2881 
L 1116 0 
L 556 0 
z
" transform="scale(0.015625)"/>
       <path id="ArialMT-63" d="M 2588 1216 
L 3141 1144 
Q 3050 572 2676 248 
Q 2303 -75 1759 -75 
Q 1078 -75 664 370 
Q 250 816 250 1647 
Q 250 2184 428 2587 
Q 606 2991 970 3192 
Q 1334 3394 1763 3394 
Q 2303 3394 2647 3120 
Q 2991 2847 3088 2344 
L 2541 2259 
Q 2463 2594 2264 2762 
Q 2066 2931 1784 2931 
Q 1359 2931 1093 2626 
Q 828 2322 828 1663 
Q 828 994 1084 691 
Q 1341 388 1753 388 
Q 2084 388 2306 591 
Q 2528 794 2588 1216 
z
" transform="scale(0.015625)"/>
       <path id="ArialMT-6f" d="M 213 1659 
Q 213 2581 725 3025 
Q 1153 3394 1769 3394 
Q 2453 3394 2887 2945 
Q 3322 2497 3322 1706 
Q 3322 1066 3130 698 
Q 2938 331 2570 128 
Q 2203 -75 1769 -75 
Q 1072 -75 642 372 
Q 213 819 213 1659 
z
M 791 1659 
Q 791 1022 1069 705 
Q 1347 388 1769 388 
Q 2188 388 2466 706 
Q 2744 1025 2744 1678 
Q 2744 2294 2464 2611 
Q 2184 2928 1769 2928 
Q 1347 2928 1069 2612 
Q 791 2297 791 1659 
z
" transform="scale(0.015625)"/>
      </defs>
      <use xlink:href="#ArialMT-45"/>
      <use xlink:href="#ArialMT-78" transform="translate(66.699219 0)"/>
      <use xlink:href="#ArialMT-70" transform="translate(116.699219 0)"/>
      <use xlink:href="#ArialMT-65" transform="translate(172.314453 0)"/>
      <use xlink:href="#ArialMT-72" transform="translate(227.929688 0)"/>
      <use xlink:href="#ArialMT-69" transform="translate(261.230469 0)"/>
      <use xlink:href="#ArialMT-6d" transform="translate(283.447266 0)"/>
      <use xlink:href="#ArialMT-65" transform="translate(366.748047 0)"/>
      <use xlink:href="#ArialMT-6e" transform="translate(422.363281 0)"/>
      <use xlink:href="#ArialMT-74" transform="translate(477.978516 0)"/>
      <use xlink:href="#ArialMT-61" transform="translate(505.761719 0)"/>
      <use xlink:href="#ArialMT-6c" transform="translate(561.376953 0)"/>
      <use xlink:href="#ArialMT-20" transform="translate(583.59375 0)"/>
      <use xlink:href="#ArialMT-54" transform="translate(609.626953 0)"/>
      <use xlink:href="#ArialMT-72" transform="translate(666.960938 0)"/>
      <use xlink:href="#ArialMT-61" transform="translate(700.261719 0)"/>
      <use xlink:href="#ArialMT-6e" transform="translate(755.876953 0)"/>
      <use xlink:href="#ArialMT-73" transform="translate(811.492188 0)"/>
      <use xlink:href="#ArialMT-66" transform="translate(861.492188 0)"/>
      <use xlink:href="#ArialMT-65" transform="translate(889.275391 0)"/>
      <use xlink:href="#ArialMT-63" transform="translate(944.890625 0)"/>
      <use xlink:href="#ArialMT-74" transform="translate(994.890625 0)"/>
      <use xlink:href="#ArialMT-69" transform="translate(1022.673828 0)"/>
      <use xlink:href="#ArialMT-6f" transform="translate(1044.890625 0)"/>
      <use xlink:href="#ArialMT-6e" transform="translate(1100.505859 0)"/>
     </g>
    </g>
   </g>
   <g id="matplotlib.axis_2">
    <g id="ytick_1">
     <g id="line2d_6">
      <defs>
       <path id="m56be292cff" d="M 0 0 
L -3.5 0 
" style="stroke: #000000; stroke-width: 0.8"/>
      </defs>
      <g>
       <use xlink:href="#m56be292cff" x="52.5275" y="140.025" style="stroke: #000000; stroke-width: 0.8"/>
      </g>
     </g>
     <g id="text_7">
      <!-- 0.00 -->
      <g transform="translate(22.174375 144.319687) scale(0.12 -0.12)">
       <use xlink:href="#ArialMT-30"/>
       <use xlink:href="#ArialMT-2e" transform="translate(55.615234 0)"/>
       <use xlink:href="#ArialMT-30" transform="translate(83.398438 0)"/>
       <use xlink:href="#ArialMT-30" transform="translate(139.013672 0)"/>
      </g>
     </g>
    </g>
    <g id="ytick_2">
     <g id="line2d_7">
      <g>
       <use xlink:href="#m56be292cff" x="52.5275" y="111.15" style="stroke: #000000; stroke-width: 0.8"/>
      </g>
     </g>
     <g id="text_8">
      <!-- 0.25 -->
      <g transform="translate(22.174375 115.444687) scale(0.12 -0.12)">
       <use xlink:href="#ArialMT-30"/>
       <use xlink:href="#ArialMT-2e" transform="translate(55.615234 0)"/>
       <use xlink:href="#ArialMT-32" transform="translate(83.398438 0)"/>
       <use xlink:href="#ArialMT-35" transform="translate(139.013672 0)"/>
      </g>
     </g>
    </g>
    <g id="ytick_3">
     <g id="line2d_8">
      <g>
       <use xlink:href="#m56be292cff" x="52.5275" y="82.275" style="stroke: #000000; stroke-width: 0.8"/>
      </g>
     </g>
     <g id="text_9">
      <!-- 0.50 -->
      <g transform="translate(22.174375 86.569687) scale(0.12 -0.12)">
       <use xlink:href="#ArialMT-30"/>
       <use xlink:href="#ArialMT-2e" transform="translate(55.615234 0)"/>
       <use xlink:href="#ArialMT-35" transform="translate(83.398438 0)"/>
       <use xlink:href="#ArialMT-30" transform="translate(139.013672 0)"/>
      </g>
     </g>
    </g>
    <g id="ytick_4">
     <g id="line2d_9">
      <g>
       <use xlink:href="#m56be292cff" x="52.5275" y="53.4" style="stroke: #000000; stroke-width: 0.8"/>
      </g>
     </g>
     <g id="text_10">
      <!-- 0.75 -->
      <g transform="translate(22.174375 57.694687) scale(0.12 -0.12)">
       <use xlink:href="#ArialMT-30"/>
       <use xlink:href="#ArialMT-2e" transform="translate(55.615234 0)"/>
       <use xlink:href="#ArialMT-37" transform="translate(83.398438 0)"/>
       <use xlink:href="#ArialMT-35" transform="translate(139.013672 0)"/>
      </g>
     </g>
    </g>
    <g id="ytick_5">
     <g id="line2d_10">
      <g>
       <use xlink:href="#m56be292cff" x="52.5275" y="24.525" style="stroke: #000000; stroke-width: 0.8"/>
      </g>
     </g>
     <g id="text_11">
      <!-- 1.00 -->
      <g transform="translate(22.174375 28.819687) scale(0.12 -0.12)">
       <use xlink:href="#ArialMT-31"/>
       <use xlink:href="#ArialMT-2e" transform="translate(55.615234 0)"/>
       <use xlink:href="#ArialMT-30" transform="translate(83.398438 0)"/>
       <use xlink:href="#ArialMT-30" transform="translate(139.013672 0)"/>
      </g>
     </g>
    </g>
    <g id="text_12">
     <!-- Predicted Transfection -->
     <g transform="translate(15.789375 136.195312) rotate(-90) scale(0.12 -0.12)">
      <defs>
       <path id="ArialMT-50" d="M 494 0 
L 494 4581 
L 2222 4581 
Q 2678 4581 2919 4538 
Q 3256 4481 3484 4323 
Q 3713 4166 3852 3881 
Q 3991 3597 3991 3256 
Q 3991 2672 3619 2267 
Q 3247 1863 2275 1863 
L 1100 1863 
L 1100 0 
L 494 0 
z
M 1100 2403 
L 2284 2403 
Q 2872 2403 3119 2622 
Q 3366 2841 3366 3238 
Q 3366 3525 3220 3729 
Q 3075 3934 2838 4000 
Q 2684 4041 2272 4041 
L 1100 4041 
L 1100 2403 
z
" transform="scale(0.015625)"/>
       <path id="ArialMT-64" d="M 2575 0 
L 2575 419 
Q 2259 -75 1647 -75 
Q 1250 -75 917 144 
Q 584 363 401 755 
Q 219 1147 219 1656 
Q 219 2153 384 2558 
Q 550 2963 881 3178 
Q 1213 3394 1622 3394 
Q 1922 3394 2156 3267 
Q 2391 3141 2538 2938 
L 2538 4581 
L 3097 4581 
L 3097 0 
L 2575 0 
z
M 797 1656 
Q 797 1019 1065 703 
Q 1334 388 1700 388 
Q 2069 388 2326 689 
Q 2584 991 2584 1609 
Q 2584 2291 2321 2609 
Q 2059 2928 1675 2928 
Q 1300 2928 1048 2622 
Q 797 2316 797 1656 
z
" transform="scale(0.015625)"/>
      </defs>
      <use xlink:href="#ArialMT-50"/>
      <use xlink:href="#ArialMT-72" transform="translate(66.699219 0)"/>
      <use xlink:href="#ArialMT-65" transform="translate(100 0)"/>
      <use xlink:href="#ArialMT-64" transform="translate(155.615234 0)"/>
      <use xlink:href="#ArialMT-69" transform="translate(211.230469 0)"/>
      <use xlink:href="#ArialMT-63" transform="translate(233.447266 0)"/>
      <use xlink:href="#ArialMT-74" transform="translate(283.447266 0)"/>
      <use xlink:href="#ArialMT-65" transform="translate(311.230469 0)"/>
      <use xlink:href="#ArialMT-64" transform="translate(366.845703 0)"/>
      <use xlink:href="#ArialMT-20" transform="translate(422.460938 0)"/>
      <use xlink:href="#ArialMT-54" transform="translate(448.494141 0)"/>
      <use xlink:href="#ArialMT-72" transform="translate(505.828125 0)"/>
      <use xlink:href="#ArialMT-61" transform="translate(539.128906 0)"/>
      <use xlink:href="#ArialMT-6e" transform="translate(594.744141 0)"/>
      <use xlink:href="#ArialMT-73" transform="translate(650.359375 0)"/>
      <use xlink:href="#ArialMT-66" transform="translate(700.359375 0)"/>
      <use xlink:href="#ArialMT-65" transform="translate(728.142578 0)"/>
      <use xlink:href="#ArialMT-63" transform="translate(783.757812 0)"/>
      <use xlink:href="#ArialMT-74" transform="translate(833.757812 0)"/>
      <use xlink:href="#ArialMT-69" transform="translate(861.541016 0)"/>
      <use xlink:href="#ArialMT-6f" transform="translate(883.757812 0)"/>
      <use xlink:href="#ArialMT-6e" transform="translate(939.373047 0)"/>
     </g>
    </g>
   </g>
   <g id="line2d_11">
    <path d="M 67.91975 120.981359 
L 68.859943 120.228298 
L 69.800136 119.475238 
L 70.740329 118.722177 
L 71.680522 117.969116 
L 72.620715 117.216056 
L 73.560908 116.462995 
L 74.501101 115.709934 
L 75.441294 114.956874 
L 76.381487 114.203813 
L 77.32168 113.450752 
L 78.261873 112.697692 
L 79.202066 111.944631 
L 80.142259 111.19157 
L 81.082452 110.43851 
L 82.022645 109.685449 
L 82.962838 108.932388 
L 83.903031 108.179328 
L 84.843224 107.426267 
L 85.783417 106.673206 
L 86.72361 105.920146 
L 87.663803 105.167085 
L 88.603996 104.414024 
L 89.544189 103.660964 
L 90.484382 102.907903 
L 91.424575 102.154843 
L 92.364768 101.401782 
L 93.304961 100.648721 
L 94.245154 99.895661 
L 95.185347 99.1426 
L 96.125539 98.389539 
L 97.065732 97.636479 
L 98.005925 96.883418 
L 98.946118 96.130357 
L 99.886311 95.377297 
L 100.826504 94.624236 
L 101.766697 93.871175 
L 102.70689 93.118115 
L 103.647083 92.365054 
L 104.587276 91.611993 
L 105.527469 90.858933 
L 106.467662 90.105872 
L 107.407855 89.352811 
L 108.348048 88.599751 
L 109.288241 87.84669 
L 110.228434 87.093629 
L 111.168627 86.340569 
L 112.10882 85.587508 
L 113.049013 84.834447 
L 113.989206 84.081387 
L 114.929399 83.328326 
L 115.869592 82.575265 
L 116.809785 81.822205 
L 117.749978 81.069144 
L 118.690171 80.316083 
L 119.630364 79.563023 
L 120.570557 78.809962 
L 121.51075 78.056901 
L 122.450943 77.303841 
L 123.391136 76.55078 
L 124.331329 75.797719 
L 125.271522 75.044659 
L 126.211715 74.291598 
L 127.151908 73.538537 
L 128.092101 72.785477 
L 129.032294 72.032416 
L 129.972487 71.279355 
L 130.91268 70.526295 
L 131.852873 69.773234 
L 132.793066 69.020173 
L 133.733259 68.267113 
L 134.673452 67.514052 
L 135.613645 66.760991 
L 136.553838 66.007931 
L 137.494031 65.25487 
L 138.434224 64.501809 
L 139.374417 63.748749 
L 140.31461 62.995688 
L 141.254803 62.242627 
L 142.194995 61.489567 
L 143.135188 60.736506 
L 144.075381 59.983445 
L 145.015574 59.230385 
L 145.955767 58.477324 
L 146.89596 57.724263 
L 147.836153 56.971203 
L 148.776346 56.218142 
L 149.716539 55.465082 
L 150.656732 54.712021 
L 151.596925 53.95896 
L 152.537118 53.2059 
L 153.477311 52.452839 
L 154.417504 51.699778 
L 155.357697 50.946718 
L 156.29789 50.193657 
L 157.238083 49.440596 
L 158.178276 48.687536 
L 159.118469 47.934475 
L 160.058662 47.181414 
L 160.998855 46.428354 
" clip-path="url(#paea1209b93)" style="fill: none; stroke-dasharray: 8.325,3.6; stroke-dashoffset: 0; stroke: #000000; stroke-width: 2.25"/>
   </g>
   <g id="patch_3">
    <path d="M 52.5275 145.8 
L 52.5275 7.2 
" style="fill: none; stroke: #000000; stroke-width: 0.8; stroke-linejoin: miter; stroke-linecap: square"/>
   </g>
   <g id="patch_4">
    <path d="M 52.5275 145.8 
L 192.0275 145.8 
" style="fill: none; stroke: #000000; stroke-width: 0.8; stroke-linejoin: miter; stroke-linecap: square"/>
   </g>
   <g id="text_13">
    <!-- $r$ = 0.91 -->
    <g transform="translate(66.4775 21.06) scale(0.16 -0.16)">
     <defs>
      <path id="DejaVuSans-Oblique-72" d="M 2853 2969 
Q 2766 3016 2653 3041 
Q 2541 3066 2413 3066 
Q 1953 3066 1609 2717 
Q 1266 2369 1153 1784 
L 800 0 
L 225 0 
L 909 3500 
L 1484 3500 
L 1375 2956 
Q 1603 3259 1920 3421 
Q 2238 3584 2597 3584 
Q 2691 3584 2781 3573 
Q 2872 3563 2963 3538 
L 2853 2969 
z
" transform="scale(0.015625)"/>
      <path id="ArialMT-3d" d="M 3381 2694 
L 356 2694 
L 356 3219 
L 3381 3219 
L 3381 2694 
z
M 3381 1303 
L 356 1303 
L 356 1828 
L 3381 1828 
L 3381 1303 
z
" transform="scale(0.015625)"/>
      <path id="ArialMT-39" d="M 350 1059 
L 891 1109 
Q 959 728 1153 556 
Q 1347 384 1650 384 
Q 1909 384 2104 503 
Q 2300 622 2425 820 
Q 2550 1019 2634 1356 
Q 2719 1694 2719 2044 
Q 2719 2081 2716 2156 
Q 2547 1888 2255 1720 
Q 1963 1553 1622 1553 
Q 1053 1553 659 1965 
Q 266 2378 266 3053 
Q 266 3750 677 4175 
Q 1088 4600 1706 4600 
Q 2153 4600 2523 4359 
Q 2894 4119 3086 3673 
Q 3278 3228 3278 2384 
Q 3278 1506 3087 986 
Q 2897 466 2520 194 
Q 2144 -78 1638 -78 
Q 1100 -78 759 220 
Q 419 519 350 1059 
z
M 2653 3081 
Q 2653 3566 2395 3850 
Q 2138 4134 1775 4134 
Q 1400 4134 1122 3828 
Q 844 3522 844 3034 
Q 844 2597 1108 2323 
Q 1372 2050 1759 2050 
Q 2150 2050 2401 2323 
Q 2653 2597 2653 3081 
z
" transform="scale(0.015625)"/>
     </defs>
     <use xlink:href="#DejaVuSans-Oblique-72" transform="translate(0 0.125)"/>
     <use xlink:href="#ArialMT-20" transform="translate(41.113281 0.125)"/>
     <use xlink:href="#ArialMT-3d" transform="translate(68.896484 0.125)"/>
     <use xlink:href="#ArialMT-20" transform="translate(127.294922 0.125)"/>
     <use xlink:href="#ArialMT-30" transform="translate(155.078125 0.125)"/>
     <use xlink:href="#ArialMT-2e" transform="translate(210.693359 0.125)"/>
     <use xlink:href="#ArialMT-39" transform="translate(238.476562 0.125)"/>
     <use xlink:href="#ArialMT-31" transform="translate(294.091797 0.125)"/>
    </g>
   </g>
   <g id="text_14">
    <!-- $\rho$ = 0.75 -->
    <g transform="translate(66.4775 34.92) scale(0.16 -0.16)">
     <defs>
      <path id="DejaVuSans-Oblique-3c1" d="M 1203 2875 
Q 1453 3194 1981 3475 
Q 2188 3584 2756 3584 
Q 3394 3584 3694 3078 
Q 3994 2572 3834 1747 
Q 3672 922 3175 415 
Q 2678 -91 2041 -91 
Q 1656 -91 1409 63 
Q 1163 213 1044 525 
L 681 -1331 
L 103 -1331 
L 697 1716 
Q 838 2438 1203 2875 
z
M 3238 1747 
Q 3359 2381 3169 2744 
Q 2978 3103 2522 3103 
Q 2066 3103 1734 2744 
Q 1403 2381 1281 1747 
Q 1156 1113 1347 750 
Q 1538 391 1994 391 
Q 2450 391 2781 750 
Q 3113 1113 3238 1747 
z
" transform="scale(0.015625)"/>
     </defs>
     <use xlink:href="#DejaVuSans-Oblique-3c1" transform="translate(0 0.125)"/>
     <use xlink:href="#ArialMT-20" transform="translate(63.476562 0.125)"/>
     <use xlink:href="#ArialMT-3d" transform="translate(91.259766 0.125)"/>
     <use xlink:href="#ArialMT-20" transform="translate(149.658203 0.125)"/>
     <use xlink:href="#ArialMT-30" transform="translate(177.441406 0.125)"/>
     <use xlink:href="#ArialMT-2e" transform="translate(233.056641 0.125)"/>
     <use xlink:href="#ArialMT-37" transform="translate(260.839844 0.125)"/>
     <use xlink:href="#ArialMT-35" transform="translate(316.455078 0.125)"/>
    </g>
   </g>
  </g>
 </g>
 <defs>
  <clipPath id="paea1209b93">
   <rect x="52.5275" y="7.2" width="139.5" height="138.6"/>
  </clipPath>
 </defs>
</svg>
